<svg width="24" height="24" viewBox="0 0 24 24" fill="none" xmlns="http://www.w3.org/2000/svg">
<path d="M23 18C23 18.75 22.79 19.46 22.42 20.06C22.21 20.42 21.94 20.74 21.63 21C20.93 21.63 20.01 22 19 22C17.78 22 16.69 21.45 15.97 20.59C15.95 20.56 15.92 20.54 15.9 20.51C15.78 20.37 15.67 20.22 15.58 20.06C15.21 19.46 15 18.75 15 18C15 16.74 15.58 15.61 16.5 14.88C17.19 14.33 18.06 14 19 14C20 14 20.9 14.36 21.6 14.97C21.72 15.06 21.83 15.17 21.93 15.28C22.59 16 23 16.95 23 18Z" stroke="#464646" stroke-width="1.5" stroke-miterlimit="10" stroke-linecap="round" stroke-linejoin="round"/>
<path d="M20.4898 17.98H17.5098" stroke="#464646" stroke-width="1.5" stroke-miterlimit="10" stroke-linecap="round" stroke-linejoin="round"/>
<path d="M19 16.52V19.51" stroke="#464646" stroke-width="1.5" stroke-miterlimit="10" stroke-linecap="round" stroke-linejoin="round"/>
<path d="M3.16992 7.43994L11.9999 12.5499L20.7699 7.46991" stroke="#464646" stroke-width="1.5" stroke-linecap="round" stroke-linejoin="round"/>
<path d="M12 21.61V12.54" stroke="#464646" stroke-width="1.5" stroke-linecap="round" stroke-linejoin="round"/>
<path d="M2.38965 14.83V9.17C2.38965 7.79 3.37965 6.11002 4.58965 5.44002L9.92964 2.48C11.0696 1.84 12.9297 1.84 14.0697 2.48L19.4097 5.44002C20.6197 6.11002 21.6096 7.79 21.6096 9.17V14.83C21.6096 14.88 21.6097 14.92 21.5997 14.97C20.8997 14.36 19.9996 14 18.9996 14C18.0596 14 17.1896 14.33 16.4996 14.88C15.5796 15.61 14.9996 16.74 14.9996 18C14.9996 18.75 15.2097 19.46 15.5797 20.06C15.6697 20.22 15.7796 20.37 15.8996 20.51L14.0697 21.52C12.9297 22.16 11.0696 22.16 9.92964 21.52L4.58965 18.56" stroke="#464646" stroke-width="1.5" stroke-linecap="round" stroke-linejoin="round"/>
</svg>
