<svg width="20" height="20" viewBox="0 0 20 20" fill="none" xmlns="http://www.w3.org/2000/svg">
<path d="M19.707 5.293L14.707 0.293001C14.6143 0.199958 14.5041 0.126171 14.3828 0.0758854C14.2614 0.0256001 14.1313 -0.000189449 14 1.04767e-06H6C5.86866 -0.000189449 5.73857 0.0256001 5.61724 0.0758854C5.4959 0.126171 5.38571 0.199958 5.293 0.293001L0.293001 5.293C0.199958 5.38571 0.126171 5.4959 0.0758854 5.61724C0.0256001 5.73857 -0.000189449 5.86866 1.04767e-06 6V14C1.04767e-06 14.266 0.105001 14.52 0.293001 14.707L5.293 19.707C5.38571 19.8 5.4959 19.8738 5.61724 19.9241C5.73857 19.9744 5.86866 20.0002 6 20H14C14.266 20 14.52 19.895 14.707 19.707L19.707 14.707C19.8 14.6143 19.8738 14.5041 19.9241 14.3828C19.9744 14.2614 20.0002 14.1313 20 14V6C20.0002 5.86866 19.9744 5.73857 19.9241 5.61724C19.8738 5.4959 19.8 5.38571 19.707 5.293ZM18 13.586L13.586 18H6.414L2 13.586V6.414L6.414 2H13.586L18 6.414V13.586Z" fill="#FF2E2E"/>
</svg>
